<svg xmlns="http://www.w3.org/2000/svg" width="64" height="64" viewBox="0 0 64 64" fill="none">
  <rect x="6" y="6" width="52" height="52" rx="14" fill="#24292f"/>
  <path d="M32 10l3 9 9 3-9 3-3 9-3-9-9-3 9-3 3-9z" stroke="#ffffff" stroke-width="4" stroke-linecap="round" stroke-linejoin="round"/>
  <path d="M50 34l2 6 6 2-6 2-2 6-2-6-6-2 6-2 2-6z" stroke="#ffffff" stroke-width="4" stroke-linecap="round" stroke-linejoin="round"/>
  <path d="M14 36l2 5 5 2-5 2-2 5-2-5-5-2 5-2 2-5z" stroke="#ffffff" stroke-width="4" stroke-linecap="round" stroke-linejoin="round"/>
</svg>
